<?xml version="1.0" encoding="iso-8859-1"?>
<!-- Generator: Adobe Illustrator 19.0.0, SVG Export Plug-In . SVG Version: 6.00 Build 0)  -->
<svg version="1.1" id="Layer_1" xmlns="http://www.w3.org/2000/svg" xmlns:xlink="http://www.w3.org/1999/xlink" x="0px" y="0px"
	 viewBox="0 0 512 512" style="enable-background:new 0 0 512 512;" xml:space="preserve">
<g>
	<g>
		<path d="M478.362,232.954c-1.203-5.082-3.79-9.744-7.575-13.529c-5.38-5.38-12.534-8.343-20.146-8.343
			c-13.25,0-24.417,9.092-27.586,21.366h-79.638c-3.338-17.298-18.592-30.406-36.85-30.406c-10.664,0-20.742,4.543-27.792,12.327
			h-43.429c-3.934,0-7.122,3.188-7.122,7.122v24.653c0,3.934,3.188,7.122,7.122,7.122c3.934,0,7.122-3.189,7.122-7.122v-17.531
			h28.204c-1.073,3.517-1.634,7.199-1.634,10.957c0,3.934,3.188,7.122,7.122,7.122c3.934,0,7.122-3.189,7.122-7.122
			c0-4.785,1.435-9.368,4.165-13.276c4.346-6.266,11.493-10.008,19.119-10.008c12.838,0,23.284,10.445,23.284,23.284
			c0,3.934,3.188,7.122,7.122,7.122h17.794v13.148c0,3.934,3.188,7.122,7.122,7.122s7.122-3.189,7.122-7.122v-13.148h10.409v13.148
			c0,3.934,3.188,7.122,7.122,7.122s7.122-3.189,7.122-7.122v-13.148h10.409v13.148c0,3.934,3.188,7.122,7.122,7.122
			c3.934,0,7.122-3.189,7.122-7.122v-13.148h10.957c3.934,0,7.122-3.189,7.122-7.122c0-7.854,6.39-14.244,14.244-14.244
			c3.806,0,7.384,1.481,10.074,4.17s4.17,6.267,4.17,10.074c0,3.934,3.188,7.122,7.122,7.122c14.198,0,25.749,11.551,25.749,25.749
			v5.566H319.386c-5.322,0-10.329,2.076-14.097,5.844s-5.844,8.779-5.844,14.108c0,10.996,8.946,19.942,19.942,19.942H461.87
			c-2.833,7.056-9.746,12.053-17.804,12.053h-36.859c-3.934,0-7.122,3.189-7.122,7.122c0,3.934,3.189,7.122,7.122,7.122h36.859
			c18.427,0,33.419-14.991,33.419-33.419c0-3.02-1.882-5.595-4.536-6.631v-11.898h31.929c3.934,0,7.122-3.188,7.122-7.122v-12.688
			C512,252.551,497.405,236.006,478.362,232.954z M353.123,303.658h-33.737c-3.141,0-5.698-2.556-5.698-5.698
			c0-1.524,0.594-2.957,1.672-4.036c1.078-1.079,2.508-1.672,4.026-1.672h33.737V303.658z M382.707,303.658h-15.34v-11.406h15.34
			V303.658z M419.512,303.658h-22.561v-11.406h22.561V303.658z M458.705,303.658h-24.949v-11.406h24.949V303.658z"/>
	</g>
</g>
<g>
	<g>
		<path d="M384.197,329.955H259.999c-3.934,0-7.122,3.188-7.122,7.122c0,3.934,3.188,7.122,7.122,7.122h21.366
			c8.76,0,15.888,7.128,15.888,15.888v0.548h-54.511c-7.101,0-13.771-2.763-18.789-7.79c-4.399-4.39-7.125-10.215-7.678-16.391
			c-0.07-0.797-0.104-1.578-0.104-2.389c0-14.652,11.919-26.571,26.571-26.571h15.614c3.934,0,7.122-3.189,7.122-7.122
			c0-3.934-3.188-7.122-7.122-7.122h-15.614c-22.506,0-40.815,18.309-40.815,40.815c0,1.232,0.051,2.421,0.16,3.646
			c0.849,9.512,5.041,18.467,11.794,25.206c7.701,7.714,17.95,11.962,28.861,11.962h61.633c3.934,0,7.122-3.188,7.122-7.122v-7.67
			c0-5.828-1.669-11.271-4.545-15.888h77.245c3.934,0,7.122-3.188,7.122-7.122C391.319,333.144,388.131,329.955,384.197,329.955z"/>
	</g>
</g>
<g>
	<g>
		<path d="M232.17,163.039l-106.349-23.46c-30.794-6.79-62.555,0.642-87.137,20.393C14.099,179.725,0,209.142,0,240.677
			c0,16.533,3.786,32.345,11.254,47c7.133,13.975,17.535,26.345,30.083,35.776c1.282,0.964,2.784,1.43,4.273,1.43
			c2.163,0,4.299-0.982,5.699-2.843c2.363-3.145,1.73-7.609-1.415-9.972c-10.824-8.137-19.799-18.81-25.951-30.862
			c-6.436-12.629-9.699-26.264-9.699-40.529c0-27.198,12.159-52.566,33.36-69.6c21.2-17.034,48.589-23.444,75.148-17.587
			l68.763,15.169l-62.189,9.324c-10.503,1.569-20.313,6.696-27.624,14.442c-5.791,6.146-9.837,13.772-11.74,21.945H48.748
			c-3.934,0-7.122,3.188-7.122,7.122c0,3.934,3.189,7.122,7.122,7.122h47.258h37.911v17.531c0,3.934,3.188,7.122,7.122,7.122
			c3.934,0,7.122-3.189,7.122-7.122v-17.531h32.915v17.531c0,3.934,3.188,7.122,7.122,7.122c3.934,0,7.122-3.189,7.122-7.122
			v-17.531h14.66c3.934,0,7.122-3.189,7.122-7.122c0-3.934-3.188-7.122-7.122-7.122H104.748c1.536-4.507,4.028-8.68,7.318-12.172
			c5.126-5.431,12.003-9.029,19.369-10.128l100.257-15.033c3.396-0.51,5.944-3.369,6.061-6.801
			C237.87,166.805,235.522,163.779,232.17,163.039z"/>
	</g>
</g>
<g>
	<g>
		<path d="M308.692,229.162c-3.934,0-7.122,3.188-7.122,7.122v14.792c0,3.934,3.188,7.122,7.122,7.122
			c3.934,0,7.122-3.189,7.122-7.122v-14.792C315.814,232.351,312.626,229.162,308.692,229.162z"/>
	</g>
</g>
<g>
	<g>
		<path d="M186.971,329.955h-66.859c-2.068-20.583-19.489-36.706-40.608-36.706H63.89c-3.934,0-7.122,3.188-7.122,7.122
			s3.188,7.122,7.122,7.122h15.614c14.652,0,26.571,11.919,26.571,26.571c0,0.8-0.035,1.599-0.104,2.379
			c-0.542,6.174-3.266,12.001-7.671,16.406c-5.022,5.022-11.696,7.786-18.796,7.786H15.69v-0.548c0-8.76,7.128-15.888,15.888-15.888
			h37.988c3.934,0,7.122-3.188,7.122-7.122c0-3.934-3.188-7.122-7.122-7.122H31.578c-16.615,0-30.132,13.517-30.132,30.132v7.67
			c0,3.934,3.188,7.122,7.122,7.122h70.936c10.904,0,21.157-4.247,28.867-11.958c5.197-5.197,8.864-11.689,10.668-18.721h67.931
			c3.934,0,7.122-3.188,7.122-7.122C194.093,333.144,190.904,329.955,186.971,329.955z"/>
	</g>
</g>
<g>
	<g>
		<circle cx="450.093" cy="241.767" r="7.122"/>
	</g>
</g>
<g>
</g>
<g>
</g>
<g>
</g>
<g>
</g>
<g>
</g>
<g>
</g>
<g>
</g>
<g>
</g>
<g>
</g>
<g>
</g>
<g>
</g>
<g>
</g>
<g>
</g>
<g>
</g>
<g>
</g>
</svg>
