<svg id="Layer_1" enable-background="new 0 0 510.207 510.207" height="512" viewBox="0 0 510.207 510.207" width="512" xmlns="http://www.w3.org/2000/svg"><g><path d="m437.313 449.718-121.717-163.556 59.059-97.895.224-.383c22.234-39.449 21.87-86.343-.975-125.442-22.843-39.099-63.517-62.442-108.8-62.442h-20c-45.283 0-85.957 23.343-108.801 62.441-22.845 39.1-23.209 85.993-.975 125.442l59.286 98.274-121.719 163.561 107.536 60.489 74.674-123.778 74.671 123.778zm-88.463-276.751-52.604 87.193-22.553-30.306 51.083-70.95c19.42-26.972 25.009-60.814 16.028-91.994 2.601 3.358 5.008 6.916 7.199 10.666 17.368 29.729 17.681 65.372.847 95.391zm-139.073-31.592c-4.71-6.541-8.289-13.644-10.719-21.046 12.409-19.032 33.201-30.329 56.046-30.329s43.637 11.297 56.045 30.329c-2.43 7.402-6.01 14.505-10.719 21.046l-45.326 62.953zm97.036-79.418c2.76 5.52 4.809 11.26 6.166 17.101-16.412-12.243-36.525-19.058-57.875-19.058s-41.464 6.815-57.875 19.058c1.357-5.841 3.406-11.581 6.166-17.101 9.856-19.712 29.669-31.957 51.709-31.957s41.852 12.245 51.709 31.957zm-144.608 15.619c2.191-3.75 4.598-7.308 7.199-10.666-8.981 31.18-3.393 65.022 16.028 91.994l207.463 281.378-52.464 29.511-179.074-296.827c-16.834-30.018-16.521-65.661.848-95.39zm7.571 392.217-52.464-29.511 94.044-126.372 26.231 43.481z"/></g></svg>