<?xml version="1.0" encoding="iso-8859-1"?>
<!-- Generator: Adobe Illustrator 19.0.0, SVG Export Plug-In . SVG Version: 6.00 Build 0)  -->
<svg version="1.1" id="Capa_1" xmlns="http://www.w3.org/2000/svg" xmlns:xlink="http://www.w3.org/1999/xlink" x="0px" y="0px"
	 viewBox="0 0 512.003 512.003" style="enable-background:new 0 0 512.003 512.003;" xml:space="preserve">
<g>
	<g>
		<path d="M509.073,494.929l-71.581-71.581l7.39-7.39c1.875-1.875,2.929-4.419,2.929-7.071c0-2.652-1.054-5.196-2.929-7.071
			l-18.069-18.069l24.449-24.449c3.905-3.905,3.905-10.237,0-14.143L216.348,110.241l22.035-22.035
			c3.905-3.905,3.905-10.237,0-14.143c-3.905-3.904-10.237-3.905-14.143,0l-47.993,47.992l-49.498-49.498
			c-3.906-3.905-10.236-3.905-14.143,0l-1.705,1.705L95.379,58.74l41.668-41.668c3.905-3.905,3.905-10.237,0-14.143
			c-3.906-3.905-10.236-3.905-14.143,0L2.93,122.905c-3.905,3.905-3.905,10.237,0,14.142c1.953,1.953,4.512,2.929,7.071,2.929
			s5.118-0.977,7.071-2.929L58.74,95.379l15.524,15.523l-1.705,1.705c-3.905,3.905-3.905,10.237,0,14.143l49.498,49.498
			L74.065,224.24c-3.905,3.905-3.905,10.237,0,14.143c1.953,1.953,4.512,2.929,7.071,2.929c2.559,0,5.119-0.977,7.071-2.929
			l22.034-22.034l234.915,234.914c1.876,1.875,4.419,2.929,7.071,2.929c2.652,0,5.195-1.054,7.071-2.929l24.449-24.449
			l18.069,18.069c1.953,1.953,4.512,2.929,7.071,2.929c2.559,0,5.118-0.977,7.071-2.929l7.39-7.39l71.581,71.581
			c1.953,1.953,4.512,2.929,7.071,2.929s5.118-0.976,7.071-2.929C512.978,505.166,512.978,498.834,509.073,494.929z M88.406,96.759
			L72.883,81.236l4.177-4.177l4.177-4.177L96.76,88.405l-4.177,4.177L88.406,96.759z M93.773,119.678l25.906-25.907l42.426,42.427
			l-25.906,25.907L93.773,119.678z M191.942,269.764l-67.559-67.56l18.885-18.882c0.001-0.001,0.002-0.002,0.003-0.003
			l40.049-40.049c0.001-0.001,0.001-0.001,0.001-0.001l18.885-18.885l33.942,33.943l-12.826,12.825
			c-3.905,3.905-3.905,10.237,0,14.142c1.953,1.953,4.512,2.929,7.071,2.929c2.559,0,5.118-0.977,7.071-2.929l12.826-12.825
			l19.474,19.474l-54.329,54.329l-15.537-15.537c-3.906-3.905-10.236-3.905-14.143,0c-3.905,3.905-3.905,10.237,0,14.142
			l15.537,15.537L191.942,269.764z M352.228,430.048L206.086,283.907l9.349-9.349l124.229,124.228
			c1.953,1.953,4.512,2.929,7.071,2.929c2.56,0,5.118-0.976,7.071-2.929c3.905-3.905,3.905-10.237,0-14.142L229.578,260.415
			l54.33-54.329l18.682,18.682l-12.825,12.825c-3.905,3.905-3.905,10.237,0,14.143c1.953,1.953,4.512,2.929,7.071,2.929
			c2.56,0,5.118-0.976,7.071-2.929l12.825-12.825l113.316,113.317L352.228,430.048z M408.889,423.667L397.89,412.67l14.781-14.781
			l10.998,10.998L408.889,423.667z"/>
	</g>
</g>
<g>
	<g>
		<path d="M175.34,206.18c-0.459-0.46-0.979-0.88-1.519-1.25c-0.55-0.36-1.13-0.67-1.73-0.92c-0.6-0.25-1.23-0.44-1.87-0.57
			c-1.29-0.26-2.62-0.26-3.91,0c-0.64,0.13-1.27,0.32-1.87,0.57c-0.6,0.25-1.18,0.56-1.72,0.92c-0.55,0.37-1.059,0.79-1.52,1.25
			c-0.471,0.46-0.881,0.97-1.25,1.52c-0.36,0.54-0.67,1.12-0.92,1.72c-0.25,0.61-0.441,1.24-0.57,1.87
			c-0.13,0.65-0.191,1.3-0.191,1.96c0,0.65,0.061,1.31,0.191,1.95c0.13,0.64,0.32,1.27,0.57,1.87c0.25,0.6,0.559,1.19,0.92,1.73
			c0.369,0.55,0.779,1.06,1.25,1.52c0.46,0.46,0.97,0.88,1.52,1.24c0.54,0.36,1.12,0.67,1.72,0.92c0.6,0.25,1.23,0.44,1.87,0.57
			c0.65,0.13,1.3,0.2,1.96,0.2c0.65,0,1.3-0.07,1.95-0.2c0.64-0.13,1.271-0.32,1.87-0.57c0.6-0.25,1.18-0.56,1.73-0.92
			c0.54-0.36,1.061-0.78,1.52-1.24c0.46-0.46,0.88-0.97,1.24-1.52c0.359-0.54,0.67-1.13,0.92-1.73c0.25-0.6,0.439-1.23,0.569-1.87
			c0.131-0.64,0.2-1.3,0.2-1.95C178.27,210.61,177.201,208.04,175.34,206.18z"/>
	</g>
</g>
<g>
</g>
<g>
</g>
<g>
</g>
<g>
</g>
<g>
</g>
<g>
</g>
<g>
</g>
<g>
</g>
<g>
</g>
<g>
</g>
<g>
</g>
<g>
</g>
<g>
</g>
<g>
</g>
<g>
</g>
</svg>
